<?xml version="1.0" standalone="no"?>
<!DOCTYPE svg PUBLIC "-//W3C//DTD SVG 20010904//EN"
 "http://www.w3.org/TR/2001/REC-SVG-20010904/DTD/svg10.dtd">
<svg version="1.0" xmlns="http://www.w3.org/2000/svg"
 width="1177.000000pt" height="1177.000000pt" viewBox="0 0 1177.000000 1177.000000"
 preserveAspectRatio="xMidYMid meet">

<g transform="translate(0.000000,1177.000000) scale(0.100000,-0.100000)"
fill="#000000" stroke="none">
<path d="M5735 11410 c-527 -36 -992 -217 -1410 -547 -111 -88 -292 -269 -388
-388 -230 -286 -414 -661 -491 -1008 -60 -266 -59 -249 -65 -1202 l-6 -880
-225 -5 c-200 -5 -232 -8 -290 -29 -104 -36 -170 -79 -255 -165 -82 -83 -123
-150 -162 -266 -17 -53 -18 -166 -18 -2820 l0 -2765 22 -81 c107 -402 385
-681 793 -797 l75 -22 2543 -2 c2536 -3 2543 -3 2644 17 224 46 378 130 548
300 170 170 254 324 299 547 21 101 21 117 21 2805 0 1866 -3 2723 -11 2764
-26 149 -149 329 -282 412 -140 87 -217 104 -469 103 l-197 -1 -4 882 c-4 959
-2 932 -63 1203 -59 265 -199 591 -349 815 -273 407 -651 729 -1084 920 -361
160 -792 237 -1176 210z m460 -286 c600 -84 1130 -394 1487 -869 264 -352 409
-728 448 -1165 6 -68 10 -474 10 -987 l0 -873 -382 0 -381 0 6 853 c3 532 2
891 -4 957 -24 252 -106 487 -242 690 -213 320 -531 538 -916 626 -156 36
-400 45 -553 19 -374 -62 -681 -234 -920 -515 -149 -176 -264 -414 -313 -647
-35 -169 -38 -290 -32 -1133 3 -454 3 -831 0 -837 -4 -10 -89 -13 -379 -13
l-374 0 0 883 c0 533 4 927 10 993 79 823 597 1536 1351 1857 372 159 791 216
1184 161z m-35 -1029 c491 -109 834 -465 937 -971 16 -82 18 -158 18 -914 l0
-825 -1190 -3 c-654 -1 -1205 0 -1223 3 l-33 6 4 832 c4 905 3 894 63 1072 60
181 155 335 289 470 177 179 403 295 659 340 106 19 372 13 476 -10z m2665
-2990 c119 -31 216 -118 259 -233 14 -37 25 -85 24 -107 0 -22 -4 -1255 -7
-2740 l-6 -2700 -29 -80 c-52 -145 -82 -194 -180 -290 -132 -131 -283 -213
-451 -246 -84 -16 -4994 -25 -5075 -9 -157 32 -334 127 -451 243 -96 96 -170
230 -206 375 -16 62 -17 276 -20 2766 -3 2453 -2 2705 13 2755 38 133 114 210
259 262 48 17 192 18 2930 18 2571 1 2887 -1 2940 -14z"/>
<path d="M4355 6466 c-439 -102 -768 -550 -882 -1201 -25 -142 -25 -548 0
-690 109 -621 412 -1056 827 -1187 108 -33 302 -33 410 0 415 130 722 569 825
1182 23 132 31 428 16 573 -68 657 -395 1168 -836 1307 -90 28 -272 36 -360
16z m350 -46 c389 -123 690 -544 784 -1101 18 -103 19 -136 10 -334 -10 -258
-29 -401 -74 -580 -146 -574 -518 -965 -920 -965 -402 0 -774 391 -920 965
-45 179 -64 322 -74 580 -9 198 -8 231 10 334 101 595 436 1031 860 1121 73
15 245 5 324 -20z"/>
<path d="M4789 5447 c-114 -43 -207 -176 -260 -372 -32 -116 -32 -383 -1 -500
28 -102 89 -228 137 -283 59 -68 118 -97 195 -97 77 0 136 29 195 97 67 77
169 325 138 335 -15 5 -247 174 -255 186 -3 6 -4 17 0 25 5 14 240 132 263
132 24 0 -23 175 -76 280 -65 127 -149 198 -247 206 -31 2 -68 -1 -89 -9z"/>
<path d="M7000 6460 c-341 -88 -625 -403 -774 -860 -143 -441 -143 -919 0
-1360 146 -446 408 -746 744 -852 108 -33 302 -33 410 0 369 117 654 474 785
986 45 178 65 344 65 546 0 489 -140 915 -405 1232 -118 142 -311 266 -479
308 -103 26 -244 26 -346 0z m375 -40 c389 -123 690 -544 784 -1101 18 -103
19 -136 10 -334 -10 -258 -29 -401 -74 -580 -146 -574 -518 -965 -920 -965
-402 0 -774 391 -920 965 -45 179 -64 322 -74 580 -9 198 -8 231 10 334 101
595 436 1031 860 1121 73 15 245 5 324 -20z"/>
<path d="M7469 5447 c-114 -43 -207 -176 -260 -372 -32 -116 -32 -383 -1 -500
28 -102 89 -228 137 -283 59 -68 118 -97 195 -97 77 0 136 29 195 97 67 77
169 325 138 335 -15 5 -247 174 -255 186 -3 6 -4 17 0 25 5 14 240 132 263
132 24 0 -23 175 -76 280 -65 127 -149 198 -247 206 -31 2 -68 -1 -89 -9z"/>
<path d="M4425 2784 c-33 -8 -98 -33 -145 -56 -69 -34 -102 -59 -175 -133
-146 -145 -205 -287 -205 -495 0 -130 18 -210 72 -320 34 -69 59 -102 133
-175 145 -146 287 -205 495 -205 129 0 210 18 318 72 99 49 212 150 273 244
l42 64 1192 0 1192 0 27 26 26 27 0 267 0 267 -26 27 -27 26 -1192 0 -1192 0
-42 64 c-91 141 -263 263 -421 301 -82 19 -264 18 -345 -1z"/>
</g>
</svg>
